<?xml version="1.0" encoding="iso-8859-1"?>
<!-- Generator: Adobe Illustrator 19.0.0, SVG Export Plug-In . SVG Version: 6.00 Build 0)  -->
<svg version="1.1" id="Capa_1" xmlns="http://www.w3.org/2000/svg" xmlns:xlink="http://www.w3.org/1999/xlink" x="0px" y="0px"
	 viewBox="0 0 468.204 468.204" style="enable-background:new 0 0 468.204 468.204;" xml:space="preserve">
<path style="fill:#27A2DB;" d="M283.703,266.267l35.14,35.14l-17.396,17.396l-35.14-35.14c3.088-2.653,6.132-5.436,9.046-8.35
	C278.267,272.399,281.051,269.355,283.703,266.267z"/>
<path style="fill:#64798A;" d="M275.354,47.165c59.972,59.973,62.756,155.824,8.35,219.102c-2.653,3.088-5.436,6.132-8.35,9.046
	c-2.914,2.914-5.958,5.697-9.046,8.35c-63.321,54.449-159.173,51.666-219.146-8.307c-62.886-62.887-62.886-165.262,0.043-228.192
	C110.092-15.722,212.467-15.721,275.354,47.165z"/>
<ellipse style="fill:#EBF0F3;" cx="161.235" cy="161.256" rx="136.722" ry="136.722"/>
<g>
	<path style="fill:#44C4A1;" d="M288.284,331.959l43.672-43.672c2.438-2.438,6.392-2.438,8.83,0l11.631,11.631l-52.502,52.502
		l-11.631-11.631C285.846,338.351,285.846,334.397,288.284,331.959z"/>
	<path style="fill:#44C4A1;" d="M405.512,457.491l51.976-51.976l7.055,7.055c4.877,4.877,4.877,12.784,0,17.66l-34.316,34.316
		c-4.877,4.877-12.784,4.877-17.66,0L405.512,457.491z"/>
</g>
<rect x="342.728" y="303.882" transform="matrix(-0.7071 0.7071 -0.7071 -0.7071 917.0164 379.7753)" style="fill:#3EA69B;" width="74.253" height="151.852"/>
<g>
</g>
<g>
</g>
<g>
</g>
<g>
</g>
<g>
</g>
<g>
</g>
<g>
</g>
<g>
</g>
<g>
</g>
<g>
</g>
<g>
</g>
<g>
</g>
<g>
</g>
<g>
</g>
<g>
</g>
</svg>
